<?xml version="1.0" encoding="utf-8"?>
<!-- Generator: Adobe Illustrator 17.0.0, SVG Export Plug-In . SVG Version: 6.00 Build 0)  -->
<!DOCTYPE svg PUBLIC "-//W3C//DTD SVG 1.1//EN" "http://www.w3.org/Graphics/SVG/1.1/DTD/svg11.dtd">
<svg version="1.1" id="Layer_1" xmlns="http://www.w3.org/2000/svg" xmlns:xlink="http://www.w3.org/1999/xlink" x="0px" y="0px"
	 width="526px" height="182.083px" viewBox="5.167 0 526 182.083" enable-background="new 5.167 0 526 182.083"
	 xml:space="preserve">
<g>
	<path fill="#3C8FB1" d="M313.742,3.409c1.87,0.397,3.725,1.036,5.611,1.145c5.186,0.298,6.685,1.282,8.282,6.321
		c3.302,10.42,2.71,20.311-4.121,29.332c-0.983,1.298-1.778,2.738-2.506,3.872c7.233,4.073,14.447,7.899,21.408,12.141
		c4.293,2.617,8.153,5.935,12.303,8.799c1.484,1.024,3.187,2.117,4.9,2.346c4.255,0.569,7.483,2.713,10.693,5.338
		c1.853,1.515,4.258,2.93,6.554,3.2c3.824,0.449,5.119-1.922,3.517-5.427c-0.319-0.698-0.862-1.371-0.926-2.09
		c-0.098-1.088-0.278-2.652,0.323-3.207c0.903-0.835,2.523-1.482,3.71-1.312c3.491,0.498,5.517,3.932,4.889,7.592
		c-0.289,1.682-0.505,3.377-0.755,5.066c0.334,0.138,0.669,0.276,1.003,0.414c0.79-1.637,1.693-3.23,2.345-4.92
		c1.059-2.753,2.96-3.874,4.891-2.621c1.759,1.142,2.313,2.575,0.809,4.383c-0.929,1.118-1.796,2.288-2.916,3.721
		c4.472-1.392,8.322-2.753,12.261-3.769c3.382-0.872,6.855-0.732,9.792,1.391c0.996,0.72,1.389,2.271,2.059,3.442
		c-1.124,0.252-2.266,0.781-3.367,0.705c-4.301-0.301-7.176,1.886-10.464,5.674c2.764,0.407,4.745,1.006,6.696,0.921
		c3.921-0.169,7.183,1.102,10.503,3.106c2.943,1.776,6.435,2.618,9.598,4.061c3.061,1.396,6.336,2.617,8.948,4.646
		c6.847,5.319,14.626,7.89,23.065,8.632c5.57,0.489,11.186,0.44,16.776,0.738c1.387,0.073,2.817,0.391,4.118,0.884
		c11.101,4.212,22.442,7.403,34.327,8.415c1.024,0.088,2.024,0.454,3.001,0.837c-11.835-0.174-23.195-2.738-34.408-6.333
		c-3.671-1.177-7.632-1.722-11.498-1.967c-8.958-0.57-18.061-0.136-26.519-3.832c-3.387-1.48-6.487-3.606-9.763-5.354
		c-3.056-1.631-6.141-3.216-9.268-4.703c-3.825-1.819-7.6-3.849-11.602-5.161c-3.355-1.1-6.992-1.381-10.527-1.87
		c-2.026-0.28-4.07-0.374-4.574-2.873c-0.477-2.369,0.594-4.034,2.669-5.121c2.358-1.233,4.721-2.458,7.333-3.816
		c-6.181-1.01-11.592,0.545-16.749,3.423c-2.617,1.46-3.687,1.004-4.537-1.374c-1.807,0.218-3.467,0.42-5.128,0.621
		c-0.191-1.71-0.917-3.576-0.47-5.1c1.243-4.241-0.059-8.4-5.134-7.457c0.238,0.871,0.231,1.91,0.739,2.523
		c1.892,2.282,2.722,4.542,0.513,7.048c-2.045,2.32-5.892,3.017-8.757,1.501c-1.146-0.606-2.304-1.37-3.147-2.333
		c-2.819-3.217-6.504-4.736-10.501-5.704c-12.089-2.927-23.761-6.894-34.341-13.619c-0.528-0.335-1.025-0.717-1.425-1.326
		c9.055,4.811,18.441,8.703,28.325,11.281c0.18-0.338,0.361-0.678,0.542-1.016c-10.728-6.487-21.455-12.975-31.331-18.946
		c-9.685,5.877-18.533,11.246-27.774,16.854c7.02,3.41,12.739,8.711,20.726,9.716c3.076,0.387,6.051,1.862,8.978,3.069
		c3.916,1.615,4.371,4.529,1.026,7.812c4.283,0.474,7.827,1.586,8.57,6.502c0.367,2.434-0.223,3.347-2.602,3.085
		c-4-0.441-7.996-0.91-12.113-0.78c2.163,0.419,4.348,1.267,6.484,1.158c3.462-0.177,5.913,1.322,8.084,3.632
		c2.155,2.293,1.622,4.574-1.411,5.478c-1.801,0.537-3.291,0.867-3.37,3.239c-0.018,0.543-1.488,1.358-2.374,1.493
		c-3.459,0.529-6.945,1.014-10.436,1.162c-2.478,0.105-5.027-0.127-7.462-0.618c-5.246-1.059-10.401-2.587-15.661-3.541
		c-5.321-0.965-9.543-3.869-12.507-7.908c-4.33-5.898-8.068-12.28-11.541-18.735c-1.547-2.873-2.561-6.445-2.472-9.663
		c0.079-2.809,2.004-5.583,3.184-8.343c3.127-7.315,6.211-14.649,9.474-21.903c1.682-3.739,3.712-7.324,5.584-10.977
		c0.314,0.147,0.628,0.294,0.942,0.441c-1.907,4.963-3.801,9.931-5.724,14.888c-3.156,8.138-6.158,16.333-10.948,23.746
		c-0.807,1.248-0.801,3.565-0.249,5.044c1.41,3.773,3.168,7.444,5.116,10.976c1.688,3.063,4.097,5.737,5.712,8.831
		c3.89,7.457,9.872,11.437,18.233,12.087c2.164,0.168,4.493,0.425,6.394,1.359c7.547,3.711,15.227,1.056,22.964,0.538
		c-3.47-2.293-7.636-1.853-11.457-2.764c-4.035-0.963-7.962-2.387-11.92-3.658c-4.029-1.294-8.039-2.646-12.058-3.973
		c0.076-0.3,0.151-0.6,0.227-0.9c2.634,0.598,5.348,0.963,7.888,1.837c8.811,3.037,17.689,5.799,27.019,6.585
		c2.044,0.172,4.169-0.64,6.891-1.11c-2.058-3.245-4.111-4.832-7.279-5.396c-4.143-0.738-8.224-1.878-12.284-3.011
		c-2.594-0.724-5.077-1.837-7.661-2.605c-1.235-0.366-2.718-0.038-3.867-0.536c-3.599-1.559-7.093-3.36-10.533-5.498
		c12.489,6.062,26.159,5.057,39.39,7.413c-0.213-3.054-1.641-4.509-4.185-5.153c-6.353-1.608-12.728-3.16-19.005-5.032
		c-3.829-1.142-7.495-2.836-11.038-4.692c7.799,1.906,15.593,3.836,23.406,5.685c0.883,0.208,1.958,0.182,2.787-0.141
		c0.675-0.263,1.58-1.167,1.54-1.727c-0.054-0.766-0.754-1.879-1.445-2.142c-3.266-1.243-6.639-2.202-9.943-3.35
		c-3.274-1.137-6.685-2.049-9.729-3.646c-5.516-2.895-10.803-6.224-16.182-9.37c0.17-0.341,0.295-0.684,0.343-0.674
		c4.562,0.982,7.939-1.674,11.502-3.736c3.607-2.088,7.071-4.479,10.83-6.243c9.252-4.34,13.777-12.71,16.896-21.406
		c2.225-6.205,0.983-13.334-1.916-19.561c-0.64-1.376-3.014-2.246-4.762-2.734c-2.486-0.694-5.128-1.08-7.707-1.101
		c-2.003-0.016-4.157,0.398-5.99,1.2c-5.105,2.234-10.231,4.506-15.039,7.296c-2.549,1.48-5.256,3.685-6.488,6.239
		c-2.743,5.686-7.122,9.911-10.955,14.682c-5.704,7.097-12.941,11.922-20.641,16.514c-7.706,4.596-14.919,10.047-22.192,15.336
		c-5.749,4.18-7.906,10.949-11.223,16.824c-2.088,3.698-3.558,7.746-5.306,11.636c-0.268,0.597-0.392,1.363-0.841,1.759
		c-4.924,4.336-8.301,10.636-15.248,12.392c-1.63,0.412-3.57,0.42-5.167-0.058c-2.485-0.743-4.798-2.061-7.455-3.257
		c1.916-3.642,1.253-6.954-0.974-10.646c0,0-0.4-1.477-1.817-1.967c-1.701-1.887-1.227-0.961-2.583-2.467
		c-0.181,0.134-0.741,3.887-0.921,4.021c1.89,3.054,3.779,6.106,5.668,9.16c-0.316,0.188-0.633,0.377-0.949,0.565
		c-2.462-4.093-6.819-6.918-7.076-12.533c-0.076-1.659-1.604-3.252-2.467-4.876c-0.492,0.074-0.985,0.146-1.477,0.219
		c-0.15,1.768-0.759,3.644-0.37,5.284c1.535,6.481-0.551,11.387-5.885,15.055c2.108,1.605,3.996,3.456,6.243,4.608
		c1.494,0.765,3.514,0.771,5.276,0.683c2.259-0.114,4.487-0.734,6.745-1.01c4.863-0.593,9.751-0.993,14.599-1.678
		c5.369-0.76,10.522,0,15.426,2.093c2.787,1.19,5.328,2.955,7.845,4.842c-0.804-0.215-1.668-0.307-2.405-0.663
		c-8.172-3.957-16.547-5.207-25.492-2.783c-2.998,0.813-6.328,0.345-9.49,0.631c-2.479,0.224-4.984,0.511-7.388,1.121
		c-3.01,0.763-5.472-0.039-7.498-2.137c-2.142-2.218-4.651-2.797-7.656-3.07c-4.986-0.452-9.911-1.579-14.857-2.453
		c-0.406-0.071-0.874-0.296-1.136-0.602c-3.817-4.451-9.214-4.391-14.358-5.388c-2.618-0.507-5.296-1.971-7.365-3.699
		c-2.137-1.786-3.518-4.458-5.328-6.662c-0.961-1.17-1.978-2.403-3.228-3.209c-5.603-3.609-6.35-7.617-1.787-13.22
		c-2.658-1.289-5.185-2.514-7.712-3.739c-0.261,0.2-0.522,0.4-0.783,0.6c3.241,2.174,4.459,4.853,2.849,8.368
		c-1.074,2.346-2.504,4.09-5.321,4.186c-1.424,0.048-2.849,0.34-4.264,0.279c-5.107-0.223-9.485,1.033-12.703,5.371
		c-2.088,2.815-4.916,4.094-8.589,3.896c-1.585-0.086-3.366,0.778-4.825,1.616c-3.823,2.196-4.184,2.175-6.379-1.634
		c-0.139-0.241-0.514-0.345-1.351-0.875c0.63,4.444-1.795,6.529-5.285,7.525c-1.42,0.405-3.079,0.413-4.509,0.083
		c-0.461-0.107-1.065-2.227-0.678-2.802c0.735-1.09,2.138-1.73,3.653-2.842c-6.027-1.617-6.555,5.716-11.039,5.999
		c0.114,0.277,0.228,0.555,0.34,0.832c0.8-0.061,1.6-0.124,3.102-0.24c-4.336,5.13-11.903,6.309-12.979,14.209
		c-2.04-4.831-0.82-6.896,6.718-12.545c-6.036,0.653-11.349,1.799-14.906,7.12c-2.36,3.53-7.626,5.46-12.97,5.177
		c2.172-0.885,4.106-1.379,5.711-2.395c2.452-1.552,4.966-3.191,6.928-5.285c3.086-3.295,6.656-5.249,11.088-5.771
		c4.873-0.575,8.502-3.19,11.509-6.922c2.214-2.747,5.244-3.23,7.467-1.221c0.564,0.509,0.974,1.489,0.948,2.235
		c-0.014,0.417-1.062,0.807-1.656,1.193c-0.748,0.485-1.507,0.954-2.01,1.828c5.493-0.807,5.861-1.232,6.735-6.201
		c0.106-0.6,0.959-1.583,1.335-1.526c1.128,0.169,2.349,0.566,3.228,1.261c0.685,0.542,0.911,1.662,0.946,1.732
		c4.345-0.895,8.324-1.629,12.251-2.582c0.98-0.238,2.054-0.998,2.633-1.832c4.433-6.385,10.946-7.332,17.999-7.393
		c1.586-0.014,3.668-0.972,4.634-2.195c2.178-2.758,1.689-4.398-1.083-6.702c-1.136-0.944-2.243-1.922-3.903-3.349
		c6.197-2.108,9.72,1.316,13.463,4.259c2.529-2.06,5.04-4.166,7.615-6.193c8.788-6.915,20.511-7.619,30.236-2.203
		c8.891,4.952,15.991,11.89,22.387,19.184c2.5-0.767,4.843-1.397,7.115-2.223c1.087-0.395,2.38-0.92,2.998-1.797
		c3.009-4.27,7.321-5.351,12.12-5.217c1.989,0.055,3.296-0.479,4.156-2.367c0.906-1.988,2.09-3.677,4.211-0.943
		c0.279,0.359,0.96,0.535,1.47,0.569c4.037,0.268,8.077,0.563,12.119,0.646c0.905,0.019,2.33-0.522,2.663-1.215
		c2.912-6.049,8.17-9.714,13.441-13.257c8.007-5.382,16.406-10.199,24.258-15.79c4.218-3.002,7.704-7.056,11.411-10.746
		c4.277-4.258,8.028-8.832,10.962-14.259c1.693-3.134,5.044-5.75,8.225-7.619c5.424-3.188,11.302-5.604,16.988-8.345
		C309.783,3.409,311.762,3.409,313.742,3.409z M165.224,85.098c0.329,0,0.673,0.062,0.985-0.011
		c1.154-0.271,2.298-0.586,3.445-0.884c-0.568-1.073-0.876-2.473-1.747-3.165c-5.382-4.275-10.736-8.618-16.407-12.488
		c-4.495-3.067-9.786-3.502-15.154-2.878c-9.214,1.072-15.15,7.462-21.166,13.451c-1.013,1.008-0.644,5.553,0.24,5.959
		c4.99,2.299,7.311,6.901,10.276,10.847c3.357,4.467,7.953,4.833,12.658,4.452c1.616-0.131,3.092-2.184,4.598-3.4
		c0.594-0.48,1.072-1.101,1.646-1.61C150.552,90.101,156.608,85.025,165.224,85.098z M177.239,86.823
		c-0.151,0.32-0.301,0.64-0.452,0.961c3.369,1.688,7.719,1.87,9.592,5.83c1.757,3.715,3.352,7.386,2.265,11.846
		c3.248,0.589,5.72,2.912,9.458,1.566c6.045-2.177,10.079-6.869,13.329-11.56c3.974-5.738,6.124-12.739,9.051-19.17
		c-5.261,0-10.658,0-16.304,0c-1.128,2.311-3.264,3.045-6.062,3.083c-2.465,0.033-5.695-0.063-7.224,1.361
		c-3.562,3.317-7.236,5.505-12.146,5.468C178.246,86.203,177.742,86.608,177.239,86.823z M152.757,106.087
		c5.46,2.891,9.666,2.603,13.773-0.953c4.996-4.324,3.895-9.626,3.142-14.985c-4.008,1.494-9.073,0.587-11.606,4.743
		C155.908,98.433,154.465,102.412,152.757,106.087z M152.21,107.413c-0.392-12.09,3.478-16.758,14.58-18.903
		c0.691-0.134,1.292-0.727,1.935-1.105c-0.157-0.276-0.314-0.553-0.471-0.829c-11.502,0.353-18.874,8.485-27.162,14.598
		c1.951,0.969,3.783,1.792,5.531,2.768C148.346,104.905,149.987,106.021,152.21,107.413z"/>
	<path fill="#3C8FB1" d="M410.235,99.68c-6.795,0.053-12.543-1.029-17.795-4.069c-5.839-3.38-11.669-4.546-18.511-2.658
		c-10.53,2.906-20.976,1.295-30.989-3.204c3.928,0.531,7.854,1.482,11.784,1.498c6.417,0.026,12.996,0.204,19.212-1.093
		c6.42-1.34,12.188-1.105,17.68,2.253c5.321,3.254,10.986,5.338,17.135,6.204C409.018,98.65,409.245,98.955,410.235,99.68z"/>
	<path fill="#3C8FB1" d="M342.336,80.09c-9.057-9.125-20.574-10.999-32.783-10.795c11.861-2.607,22.855-1.244,32.286,6.894
		c1.48,1.278,2.539,1.308,4,0.276c1.068-0.755,2.246-1.359,3.395-1.995c2.505-1.385,4.882-1.433,7.392,0.239
		c5.631,3.748,11.186,7.741,18.307,8.207c0.295,0.019,0.575,0.269,1.572,0.763c-6.753,0.542-11.92-0.862-16.662-4.255
		c-4.77-3.413-9.851-3.981-15.053-0.803C344.049,79.074,343.301,79.512,342.336,80.09z"/>
	<path fill="#3C8FB1" d="M232.489,105.011c5.213,1.315,9.862,2.834,14.631,3.603c5.835,0.94,11.732,1.173,17.415-1.319
		c3.694-1.62,7.507-1.205,11.199,0.21c5.555,2.129,11.083,4.326,16.628,7.026c-3.449-0.598-6.943-1.018-10.333-1.86
		c-2.202-0.547-4.24-1.736-6.369-2.591c-3.485-1.399-6.955-1.56-10.526-0.132C255.961,113.616,240.929,111.427,232.489,105.011z"/>
	<path fill="#3C8FB1" d="M92.271,93.966c-10.76,11.198-21.872,21.767-39.259,22.784c1.317-0.726,1.963-1.175,2.676-1.459
		c2.738-1.092,5.453-2.262,8.254-3.165c8.489-2.736,14.713-8.873,21.584-14.067C87.613,96.482,90.014,95.319,92.271,93.966z"/>
	<path fill="#3C8FB1" d="M137.521,109.615c-0.789-0.253-1.61-0.434-2.362-0.769c-5.454-2.429-10.407-1.606-15.05,2.069
		c-4.487,3.551-16.137,6.483-22.159,5.259c2.129-0.623,4.258-1.248,6.387-1.871c5.662-1.654,11.221-3.327,16.205-6.842
		c5.055-3.567,10.578-2.806,15.812,0.256c0.63,0.368,1.337,0.605,2.009,0.903C138.082,108.952,137.801,109.283,137.521,109.615z"/>
	<path fill="#3C8FB1" d="M431.525,117.256c-3.279-1.095-6.508-2.388-9.849-3.245c-6.223-1.596-12.535-2.845-18.763-4.424
		c-3.379-0.857-6.662-2.094-9.835-3.609C406.415,107.962,420.303,107.898,431.525,117.256z"/>
	<path fill="#3C8FB1" d="M110.568,94.17c-4.835,4.529-8.992,8.575-13.318,12.43c-4.121,3.673-8.893,5.246-14.485,3.327
		c1.507-0.308,3.196-0.282,4.484-0.988c3.401-1.863,6.719-3.915,9.901-6.133c3.311-2.308,6.38-4.962,9.657-7.321
		C107.708,94.838,108.978,94.704,110.568,94.17z"/>
	<path fill="#3C8FB1" d="M245.029,100.704c2.019,0,4.037,0.015,6.056-0.005c1.424-0.014,3.008,0.319,4.245-0.182
		c7.36-2.989,13.25,1.318,19.54,3.674c-0.04,0.298-0.081,0.595-0.121,0.893c-2.326-0.408-4.81-0.433-6.941-1.313
		c-3.255-1.344-6.237-1.737-9.793-0.944C253.667,103.795,249.114,103.561,245.029,100.704z"/>
	<path fill="#3C8FB1" d="M349.026,104.107c7.417-3.338,17.586-1.811,20.508,2.405C363.053,105.752,356.45,104.978,349.026,104.107z"
		/>
	<path fill="#3C8FB1" d="M63.961,102.931c-0.933,4.71-4.245,6.818-9.814,6.017C57.741,106.744,60.623,104.977,63.961,102.931z"/>
	<path fill="#3C8FB1" d="M223.288,108.812c3.245-0.065,6.644-1.041,10.219,2.111c-3.996-0.473-7.135-0.845-10.276-1.216
		C223.25,109.409,223.268,109.111,223.288,108.812z"/>
	<path fill="#FFFFFF" d="M194.256,92.412c3.998,0.465,7.17,0.834,10.521,1.223C202.177,90.882,198.647,90.374,194.256,92.412z
		 M192.904,82.557c3.123,0.808,6.247,1.617,10.004,2.59C199.998,81.382,196.484,81.855,192.904,82.557z"/>
	<path fill="#3C8FB1" d="M194.256,92.412c4.392-2.038,7.922-1.53,10.521,1.223C201.425,93.246,198.254,92.877,194.256,92.412z"/>
	<path fill="#3C8FB1" d="M192.904,82.557c3.581-0.701,7.094-1.175,10.004,2.59C199.151,84.174,196.027,83.366,192.904,82.557z"/>
	<path fill="#3C8FB1" d="M269.073,75.976c-10.723-4.122-12.359,12.782-21.129,14.85c-4.614,1.087-9.893-0.75-14.017,1.923
		c-4.057,2.63-4.684,7.299-9.748,8.749c2.548,0.105,3.444-0.644,5.356-1.939c1.875-1.269,2.464-3.371,4.208-4.528
		c3.755-2.491,11.041-0.64,15.586-1.85c4.733-1.259,7.528-4.53,9.583-8.597c1.16-2.296,1.953-5.251,4.112-6.866
		c1.966-1.47,4.259-1.046,6.384-1.744"/>
</g>
<path fill="none" stroke="#3C8FB1" stroke-width="1.5" stroke-miterlimit="10" d="M197.667,71.293
	c-1.91-0.837-4.377-1.712-5.665-3.401c-1.186-1.556-2.742-5.64,0.307-5.938C195.906,61.603,196.664,69.204,197.667,71.293"/>
<path fill="none" stroke="#3C8FB1" stroke-width="1.5" stroke-miterlimit="10" d="M199.282,70.07
	c-0.396-1.276-1.009-2.836-0.732-4.169c0.255-1.227,1.578-3.694,3.002-2.344C203.231,65.15,199.871,68.708,199.282,70.07"/>
<path fill="none" stroke="#3C8FB1" stroke-width="1.5" stroke-miterlimit="10" d="M45.401,116.363
	c-3.531,0.108-11.656,4.386-14.158,0.094c4.478,2.878,10.997,3.843,16.204,1.603"/>
<g>
	
		<image overflow="visible" opacity="0.4" enable-background="new    " width="526" height="60" xlink:href="440D21CB5A9F1243.png"  transform="matrix(1 0 0 1 5.167 116.1259)">
	</image>
	<g>
		<g>
			<path fill="#265C6D" d="M11.746,167.486v-46.702h13.433c10.628,0,15.545,4.357,15.545,11.882c0,4.918-3.499,9.406-9.539,10.892
				c7.36,1.09,11.453,4.951,11.453,11.156c0,7.954-5.775,12.772-15.743,12.772L11.746,167.486L11.746,167.486z M15.112,142.633
				h10.133c8.581,0,12.146-4.786,12.146-9.604c0-6.304-3.895-9.571-12.212-9.571H15.112V142.633z M15.112,145.109v19.671h11.717
				c8.218,0,12.443-3.697,12.443-10.133c0-5.908-4.588-9.538-12.41-9.538L15.112,145.109L15.112,145.109z"/>
			<path fill="#265C6D" d="M58.408,146.363v21.123h-3.367v-46.702h11.916c10.792,0,16.073,4.225,16.073,12.278
				c0,7.062-5.116,12.014-13.268,12.904c0.528,0.33,0.99,0.76,1.419,1.32l16.073,20.199h-2.938c-0.693,0-1.155-0.231-1.65-0.858
				l-14.951-18.944c-0.759-0.957-1.386-1.32-3.201-1.32L58.408,146.363L58.408,146.363z M58.408,143.854h8.119
				c8.317,0,13.202-4.125,13.202-10.594c0-6.635-4.456-9.803-12.773-9.803h-8.548V143.854z"/>
			<path fill="#265C6D" d="M113.652,167.981c-13.103,0-22.245-9.439-22.245-23.862c0-14.357,9.143-23.862,22.245-23.862
				c13.268,0,22.278,9.472,22.278,23.862C135.93,158.542,126.92,167.981,113.652,167.981z M113.652,123.161
				c-11.089,0-18.78,7.888-18.78,20.958c0,13.103,7.69,20.925,18.78,20.925c11.255,0,18.78-7.822,18.78-20.925
				C132.432,131.048,124.907,123.161,113.652,123.161z"/>
			<path fill="#265C6D" d="M181.072,167.486h-2.607c-0.627,0-0.99-0.363-1.221-0.892l-5.512-13.564h-22.938l-5.479,13.564
				c-0.165,0.495-0.627,0.892-1.254,0.892h-2.574l19.11-46.702h3.366L181.072,167.486z M149.817,150.521h20.925l-9.538-23.598
				c-0.297-0.76-0.627-1.717-0.924-2.772c-0.297,1.056-0.627,2.013-0.924,2.805L149.817,150.521z"/>
			<path fill="#265C6D" d="M205.489,167.486h-17.03v-46.702h17.03c13.268,0,22.278,8.944,22.278,23.335
				C227.767,158.542,218.757,167.486,205.489,167.486z M205.489,123.524h-13.631v41.223h13.631c11.255,0,18.78-7.559,18.78-20.628
				C224.269,131.082,216.744,123.524,205.489,123.524z"/>
			<path fill="#265C6D" d="M273.93,126.46c-0.197,0.363-0.495,0.562-0.857,0.562c-1.122,0-3.334-3.961-10.1-3.961
				c-6.733,0-10.364,4.192-10.364,9.077c0,12.607,23.433,6.469,23.433,21.717c0,7.855-5.479,14.159-14.951,14.159
				c-6.171,0-10.462-2.311-13.795-6.106l0.924-1.452c0.264-0.33,0.561-0.495,0.924-0.495c1.254,0,3.994,5.248,12.014,5.248
				c7.394,0,11.717-4.753,11.717-10.858c0-13.169-23.434-6.073-23.434-22.047c0-6.238,4.852-12.047,13.499-12.047
				c4.852,0,8.614,1.518,11.783,4.687L273.93,126.46z"/>
			<path fill="#265C6D" d="M316.336,120.784v2.872h-16.403v43.83h-3.367v-43.83h-16.502v-2.872H316.336z"/>
			<path fill="#265C6D" d="M328.773,146.363v21.123h-3.367v-46.702h11.915c10.792,0,16.073,4.225,16.073,12.278
				c0,7.062-5.116,12.014-13.268,12.904c0.527,0.33,0.99,0.76,1.419,1.32l16.073,20.199h-2.938c-0.693,0-1.155-0.231-1.65-0.858
				l-14.951-18.944c-0.759-0.957-1.386-1.32-3.201-1.32L328.773,146.363L328.773,146.363z M328.773,143.854h8.119
				c8.316,0,13.201-4.125,13.201-10.594c0-6.635-4.455-9.803-12.772-9.803h-8.548L328.773,143.854L328.773,143.854z"/>
			<path fill="#265C6D" d="M384.017,167.981c-13.103,0-22.245-9.439-22.245-23.862c0-14.357,9.143-23.862,22.245-23.862
				c13.268,0,22.278,9.472,22.278,23.862C406.295,158.542,397.285,167.981,384.017,167.981z M384.017,123.161
				c-11.09,0-18.779,7.888-18.779,20.958c0,13.103,7.689,20.925,18.779,20.925c11.255,0,18.78-7.822,18.78-20.925
				C402.797,131.048,395.272,123.161,384.017,123.161z"/>
			<path fill="#265C6D" d="M421.634,142.336h2.771c1.684,0,2.377-0.265,3.334-1.222l18.846-19.373
				c0.693-0.693,1.188-0.958,2.079-0.958h2.739l-20.396,20.958c-0.825,0.892-1.387,1.32-2.179,1.617
				c0.925,0.265,1.585,0.793,2.344,1.684l21.519,22.443h-2.739c-1.155,0-1.452-0.363-1.98-0.892l-19.77-20.198
				c-0.957-0.957-1.419-1.419-3.564-1.419h-3.003v22.509h-3.368v-46.768h3.367V142.336z"/>
			<path fill="#265C6D" d="M488.824,120.784v2.806h-24.589v18.879h20.463v2.739h-20.463v19.473h24.589v2.806h-27.988v-46.702
				L488.824,120.784L488.824,120.784z"/>
			<path fill="#265C6D" d="M522.417,126.46c-0.197,0.363-0.495,0.562-0.857,0.562c-1.122,0-3.334-3.961-10.1-3.961
				c-6.733,0-10.363,4.192-10.363,9.077c0,12.607,23.433,6.469,23.433,21.717c0,7.855-5.479,14.159-14.951,14.159
				c-6.172,0-10.462-2.311-13.796-6.106l0.925-1.452c0.264-0.33,0.561-0.495,0.924-0.495c1.254,0,3.993,5.248,12.014,5.248
				c7.394,0,11.717-4.753,11.717-10.858c0-13.169-23.434-6.073-23.434-22.047c0-6.238,4.852-12.047,13.499-12.047
				c4.852,0,8.614,1.518,11.783,4.687L522.417,126.46z"/>
		</g>
	</g>
</g>
<line fill="none" stroke="#3C8FB1" stroke-width="2" stroke-miterlimit="10" x1="8.167" y1="176.126" x2="524.529" y2="176.126"/>
</svg>
